<svg width="480" height="480" viewBox="0 0 480 480" fill="none" xmlns="http://www.w3.org/2000/svg">
<circle cx="240" cy="240" r="240" fill="black"/>
<path d="M326.681 258.811C326.522 257.081 326.437 255.266 326.437 253.368V209.928C326.13 209.592 325.801 209.267 325.472 208.942C321.347 204.819 316.438 201.543 311.027 199.304C307.901 198.022 304.633 197.107 301.291 196.577C298.878 196.193 296.438 196.001 293.994 196C288.137 195.977 282.333 197.099 276.917 199.302C271.5 201.505 266.577 204.746 262.432 208.837C258.248 212.952 254.919 217.837 252.632 223.216C252.187 224.265 251.794 225.313 251.433 226.362C250.695 228.572 250.142 230.838 249.779 233.137C249.044 237.73 249.044 242.409 249.779 247.002C250.137 249.302 250.69 251.569 251.433 253.777C251.783 254.826 252.187 255.875 252.632 256.923C257.283 267.752 266.007 276.371 276.961 280.961C282.359 283.18 288.149 284.317 293.994 284.307C296.406 284.309 298.815 284.12 301.196 283.74C304.572 283.206 307.873 282.277 311.027 280.972C317.857 278.078 323.879 273.595 328.58 267.904C327.59 264.957 326.953 261.905 326.681 258.811ZM308.864 255.235C305.614 258.64 301.277 260.833 296.583 261.447C291.889 262.06 287.124 261.055 283.092 258.601C281.586 257.645 280.201 256.515 278.966 255.235C275.021 251.105 272.824 245.64 272.824 239.959C272.824 234.279 275.021 228.814 278.966 224.684C280.199 223.426 281.577 222.313 283.07 221.37C287.112 218.926 291.876 217.92 296.575 218.519C301.273 219.118 305.624 221.285 308.906 224.663C312.815 228.815 314.988 234.277 314.988 239.949C314.988 245.621 312.815 251.083 308.906 255.235H308.864Z" fill="white"/>
<path d="M382.003 262.842V282.233H367.208C356.465 282.233 348.531 279.853 343.6 275.165C339.845 271.599 337.512 266.355 336.632 259.528C336.351 257.319 336.216 255.094 336.229 252.868V197H359.222V250.896C359.222 254.735 360.283 257.724 362.404 259.769L362.457 259.821C364.578 261.824 367.547 262.842 371.376 262.842H382.003Z" fill="white"/>
<path d="M410.912 274.26C412.188 268.97 408.885 263.658 403.534 262.397C398.184 261.135 392.813 264.402 391.538 269.692C390.262 274.983 393.565 280.294 398.915 281.556C404.265 282.817 409.637 279.551 410.912 274.26Z" fill="#EF5A19"/>
<path d="M405.928 197V198.584L400.116 201.835L397.995 202.883V202.957C399.055 202.873 400.222 202.758 401.293 202.758H405.906V204.215H396.011V202.632L401.844 199.391L403.913 198.342V198.269C402.852 198.342 401.792 198.468 400.731 198.468H396.064V197H405.928Z" fill="white"/>
<path d="M399.713 207.435C400.193 207.393 400.676 207.447 401.135 207.594C401.593 207.741 402.017 207.978 402.381 208.29C402.745 208.602 403.042 208.983 403.254 209.411C403.466 209.839 403.589 210.304 403.616 210.78C403.616 212.72 402.205 213.759 400.105 213.759C399.842 213.761 399.579 213.736 399.32 213.685V208.945C399.021 208.94 398.723 208.996 398.446 209.108C398.168 209.22 397.917 209.386 397.706 209.597C397.495 209.807 397.329 210.058 397.218 210.333C397.107 210.609 397.054 210.904 397.061 211.2C397.063 211.822 397.255 212.429 397.613 212.941L396.637 213.476C396.134 212.745 395.861 211.884 395.852 211C395.843 210.508 395.938 210.019 396.133 209.565C396.327 209.112 396.615 208.703 396.979 208.367C397.343 208.031 397.775 207.774 398.246 207.614C398.717 207.453 399.216 207.392 399.713 207.435ZM400.381 212.437C401.664 212.437 402.406 211.871 402.406 210.801C402.377 210.291 402.15 209.812 401.773 209.463C401.396 209.113 400.898 208.92 400.381 208.924V212.437Z" fill="white"/>
<path d="M398.45 216.893H402.183V215.844H403.339L403.424 216.977L405.471 217.145V218.435H403.424V220.291H402.183V218.382H398.439C397.548 218.382 397.092 218.687 397.092 219.431C397.105 219.701 397.162 219.967 397.262 220.218L396.127 220.49C395.958 220.029 395.865 219.544 395.852 219.054C395.852 217.46 396.891 216.893 398.45 216.893Z" fill="white"/>
<path d="M403.424 222.442V223.984L399.415 224.959C398.704 225.106 398.015 225.222 397.294 225.358V225.41C397.994 225.568 398.694 225.715 399.415 225.893L403.424 226.942V228.368L399.415 229.417C398.704 229.595 398.015 229.742 397.294 229.909V229.962C397.994 230.109 398.683 230.224 399.415 230.392L403.424 231.336V232.773L396 230.885V229.05L399.659 228.116C400.348 227.938 401.027 227.812 401.78 227.655V227.581C401.016 227.434 400.327 227.309 399.659 227.12L396.021 226.228V224.456L403.424 222.442Z" fill="white"/>
<path d="M399.712 234.974C400.385 235.043 401.024 235.304 401.551 235.725C402.077 236.145 402.469 236.708 402.679 237.344C402.889 237.981 402.907 238.664 402.733 239.31C402.558 239.957 402.197 240.54 401.694 240.988C401.191 241.436 400.568 241.73 399.899 241.835C399.231 241.94 398.546 241.851 397.927 241.578C397.309 241.306 396.784 240.862 396.415 240.3C396.047 239.739 395.851 239.084 395.852 238.414C395.863 237.933 395.974 237.46 396.177 237.022C396.38 236.585 396.671 236.194 397.032 235.872C397.393 235.549 397.818 235.304 398.279 235.149C398.739 234.995 399.227 234.936 399.712 234.974ZM399.712 240.292C401.282 240.292 402.332 239.568 402.332 238.414C402.332 237.261 401.271 236.547 399.712 236.547C398.153 236.547 397.114 237.271 397.114 238.414C397.114 239.557 398.153 240.302 399.712 240.302V240.292Z" fill="white"/>
<path d="M403.424 244.99V246.238L402.099 246.364C402.519 246.547 402.881 246.838 403.148 247.207C403.415 247.576 403.576 248.009 403.615 248.461C403.627 248.746 403.572 249.029 403.456 249.29L402.109 249.007C402.188 248.77 402.227 248.522 402.226 248.273C402.226 247.675 401.812 246.962 400.646 246.5H396.032V244.979L403.424 244.99Z" fill="white"/>
<path d="M406.744 251.756V253.245H399.829L403.414 256.118V257.807L400.412 255.321L396.021 258.09V256.423L399.362 254.441L397.931 253.203H396.021V251.756H406.744Z" fill="white"/>
<path fill-rule="evenodd" clip-rule="evenodd" d="M101.996 182.065L86.9101 182.131L86.9562 199.003C86.1689 199.02 85.3894 199.034 84.6173 199.045L84.6077 199.007L66.1367 199.063L66.1977 214.782L68.6226 214.727L68.5683 212.365L68.6238 214.727L68.9468 214.72C69.1539 214.715 69.4498 214.709 69.8047 214.702C70.1057 214.696 70.4488 214.69 70.8156 214.683L70.7878 214.715L76.0757 214.696C77.683 214.69 78.4404 215.132 78.8281 215.495C79.2207 215.863 79.4895 216.392 79.6455 217.055L79.7243 238.371L79.7261 238.371L79.8127 262.754C79.7457 263.115 79.6216 263.417 79.4616 263.606C79.3853 263.697 79.2914 263.775 79.1515 263.838C79.0076 263.902 78.7464 263.982 78.3019 263.984L72.1189 264.022L72.0233 264.021C71.6675 264.017 71.3707 264.014 71.163 264.012L70.8374 264.009L68.7892 263.984L66 280.991L82.2425 280.933H82.2447C83.6009 280.932 84.8586 280.94 86.1142 280.948L86.1818 280.948C86.537 280.95 86.8921 280.953 87.2493 280.955L87.3146 298L102.392 297.947L102.328 281.138C103.504 281.151 104.664 281.158 105.809 281.16L105.866 297.941L120.951 297.879L120.917 280.722C128.778 280.095 135.813 278.661 141.21 275.403C147.307 271.722 151.066 265.868 151.849 257.106C152.471 250.194 151.164 244.83 148.052 240.854C145.96 238.181 143.178 236.298 139.978 234.982C141.432 233.706 142.682 232.202 143.657 230.439C145.496 227.111 146.243 223.055 145.751 218.236L145.746 218.236C145.054 211.399 141.655 206.716 136.583 203.69C132.181 201.063 126.599 199.725 120.621 199.065L120.56 182L105.472 182.056L105.54 198.462C104.38 198.477 103.216 198.499 102.054 198.524L101.996 182.065ZM84.3405 235.981L83.3562 235.985L83.3515 236.057L84.4778 236.053L84.4779 236.061L85.4338 236.058C85.0714 236.01 84.7061 235.987 84.3405 235.99L84.3405 235.981ZM102.41 231.124L102.353 215.312C105.559 215.218 109.848 215.097 113.768 215.857C116.238 216.337 118.261 217.122 119.634 218.272C120.909 219.34 121.758 220.826 121.767 223.159C121.774 225.333 120.963 226.767 119.683 227.838C118.305 228.99 116.269 229.806 113.795 230.332C109.9 231.161 105.594 231.159 102.41 231.124ZM102.524 263.995L102.46 246.098L102.792 246.089C106.647 245.986 111.938 245.844 116.753 246.704C119.773 247.243 122.304 248.136 124.04 249.471C125.664 250.72 126.674 252.408 126.684 254.963C126.693 257.344 125.727 258.976 124.094 260.231C122.355 261.568 119.812 262.497 116.788 263.092C111.858 264.063 106.38 264.032 102.524 263.995Z" fill="#EF5A19"/>
<path fill-rule="evenodd" clip-rule="evenodd" d="M164.446 260.735C165.01 259.08 165.392 257.23 165.578 255.164C166.31 247.05 163.814 242.092 159.228 239.148C159.343 233.693 160.497 228.305 162.633 223.268C166.036 215.193 171.779 208.295 179.14 203.442C186.5 198.589 195.149 196 203.995 196C206.914 196.001 209.826 196.275 212.692 196.818C215.549 197.365 218.342 198.198 221.028 199.304C226.442 201.543 231.354 204.819 235.484 208.942C238.105 211.52 240.399 214.404 242.314 217.531C241.493 218.987 240.76 220.489 240.119 222.03C239.694 223.027 239.313 223.992 238.963 225.04C235.64 234.794 235.64 245.355 238.963 255.108C239.313 256.115 239.694 257.122 240.119 258.118C240.782 259.69 241.533 261.223 242.367 262.712C237.39 270.89 229.935 277.312 221.06 281.065C218.344 282.186 215.519 283.03 212.629 283.583C204.018 285.243 195.104 284.364 186.994 281.055C181.558 278.809 176.624 275.523 172.475 271.385C170.392 269.331 168.513 267.084 166.865 264.673C165.984 263.407 165.176 262.092 164.446 260.735ZM206.607 261.448C211.308 260.838 215.653 258.644 218.907 255.234L218.875 255.213C222.789 251.064 224.965 245.601 224.965 239.928C224.965 234.254 222.789 228.791 218.875 224.642C216.98 222.628 214.68 221.028 212.123 219.945C209.567 218.861 206.809 218.318 204.027 218.349C200.157 218.298 196.353 219.35 193.071 221.38C191.588 222.32 190.222 223.429 188.999 224.684C186.736 227.051 185.028 229.882 183.994 232.975C182.961 236.068 182.629 239.348 183.02 242.583C183.412 245.817 184.518 248.927 186.261 251.691C188.003 254.456 190.339 256.808 193.103 258.58C197.137 261.044 201.906 262.057 206.607 261.448Z" fill="white"/>
</svg>
